<svg xmlns="http://www.w3.org/2000/svg" viewBox="0 0 1600 1000" role="img" aria-label="River Sessions">
  <defs>
    <linearGradient id="bg" x1="0" y1="0" x2="1" y2="1">
      <stop offset="0%" stop-color="#F4F1EA"/>
      <stop offset="100%" stop-color="#FFFFFF"/>
    </linearGradient>
    <filter id="grain">
      <feTurbulence type="fractalNoise" baseFrequency="0.9" numOctaves="3"/>
      <feColorMatrix type="saturate" values="0"/>
    </filter>
  </defs>
  <rect width="1600" height="1000" fill="url(#bg)"/>
  <rect x="0" y="120" width="1521" height="9" fill="#A2543A" opacity="0.50"/>
  <rect x="0" y="154" width="938" height="8" fill="#2F5D50" opacity="0.47"/>
  <rect x="0" y="188" width="917" height="12" fill="#2F5D50" opacity="0.44"/>
  <rect x="0" y="222" width="1077" height="12" fill="#2F5D50" opacity="0.42"/>
  <rect x="0" y="256" width="1341" height="4" fill="#A2543A" opacity="0.39"/>
  <rect x="0" y="290" width="1586" height="14" fill="#2F5D50" opacity="0.36"/>
  <rect x="0" y="324" width="1180" height="13" fill="#2F5D50" opacity="0.33"/>
  <rect x="0" y="358" width="1217" height="9" fill="#2F5D50" opacity="0.30"/>
  <rect x="0" y="392" width="1133" height="15" fill="#A2543A" opacity="0.28"/>
  <rect x="0" y="426" width="1247" height="7" fill="#2F5D50" opacity="0.25"/>
  <rect x="0" y="460" width="1020" height="10" fill="#2F5D50" opacity="0.22"/>
  <rect x="0" y="494" width="1222" height="12" fill="#2F5D50" opacity="0.19"/>
  <rect x="0" y="528" width="1446" height="5" fill="#A2543A" opacity="0.16"/>
  <rect x="0" y="562" width="1005" height="11" fill="#2F5D50" opacity="0.14"/>
  <rect width="1600" height="1000" filter="url(#grain)" opacity="0.05"/>
  <text x="96" y="800" font-family="Archivo, Helvetica, Arial, sans-serif" font-size="132"
        font-weight="800" letter-spacing="-5" fill="#221F1A">RIVER SESSIONS</text>
  <text x="100" y="856" font-family="Archivo, Helvetica, Arial, sans-serif" font-size="30"
        font-weight="600" letter-spacing="10" fill="#2F5D50">THE LOW COUNTRY</text>
</svg>